<?xml version="1.0" standalone="no"?>
<!DOCTYPE svg PUBLIC "-//W3C//DTD SVG 20010904//EN"
 "http://www.w3.org/TR/2001/REC-SVG-20010904/DTD/svg10.dtd">
<svg version="1.0" xmlns="http://www.w3.org/2000/svg"
 width="500.000000pt" height="500.000000pt" viewBox="0 0 500.000000 500.000000"
 preserveAspectRatio="xMidYMid meet">
<metadata>
Created by potrace 1.11, written by Peter Selinger 2001-2013
</metadata>
<g transform="translate(0.000000,500.000000) scale(0.100000,-0.100000)"
fill="#000000" stroke="none">
<path d="M2236 4833 c-4 -5 -11 -8 -14 -9 -24 -2 -82 -35 -77 -44 6 -9 -7 -14
-27 -11 -5 0 -8 -4 -8 -9 0 -6 -15 -3 -32 7 -18 9 -36 18 -40 19 -5 1 -11 3
-15 4 -5 2 -49 3 -99 4 -71 1 -90 -2 -87 -12 3 -7 2 -12 -3 -10 -12 4 -98 -24
-105 -35 -3 -4 -15 -10 -25 -11 -10 -2 -18 -10 -16 -17 2 -8 0 -11 -4 -7 -4 4
-28 -9 -53 -29 -25 -21 -42 -31 -37 -23 4 8 0 6 -8 -4 -9 -11 -16 -17 -16 -14
0 4 -13 -5 -28 -20 -15 -15 -26 -33 -24 -39 5 -15 -57 -83 -75 -83 -7 0 -10
-7 -6 -17 5 -12 3 -14 -7 -8 -9 5 -11 4 -6 -4 4 -6 1 -17 -6 -25 -38 -39 -76
-86 -101 -124 -16 -25 -32 -40 -39 -36 -6 4 -8 3 -4 -4 3 -6 1 -14 -5 -17 -5
-4 -8 -13 -6 -20 3 -7 -8 -38 -24 -70 -16 -32 -29 -66 -29 -76 0 -11 -4 -19
-10 -19 -8 0 -26 -66 -22 -82 1 -5 -2 -8 -7 -8 -6 0 -8 -9 -6 -20 2 -11 0 -20
-5 -20 -5 0 -7 -7 -4 -15 4 -8 1 -15 -6 -15 -6 0 -8 -5 -4 -11 3 -6 2 -14 -4
-18 -6 -3 -13 -34 -16 -67 -3 -34 -10 -72 -15 -85 -5 -13 -9 -27 -10 -31 0 -5
-1 -9 -2 -10 0 -2 -2 -22 -3 -44 -2 -23 -6 -46 -10 -52 -3 -5 -8 -27 -11 -48
-3 -22 -12 -55 -19 -74 -34 -89 -46 -157 -51 -276 -1 -34 -4 -65 -6 -70 -3 -5
-4 -33 -4 -61 0 -37 -4 -53 -13 -53 -9 0 -10 -5 -4 -17 9 -19 8 -222 -1 -285
-3 -20 -11 -56 -18 -80 -6 -24 -12 -56 -14 -73 -8 -100 -33 -232 -59 -317 -8
-27 -10 -48 -6 -48 14 0 -13 -136 -36 -181 -7 -15 -11 -29 -9 -31 3 -3 -2 -42
-10 -87 -9 -45 -18 -108 -20 -139 -5 -68 -9 -89 -18 -98 -4 -4 -7 -16 -7 -26
0 -10 -4 -18 -8 -18 -4 0 -7 -12 -7 -27 1 -16 -2 -32 -6 -38 -3 -5 -9 -48 -13
-95 -3 -47 -8 -105 -11 -130 -3 -25 -7 -67 -9 -95 -14 -153 -61 -210 -266
-323 -75 -41 -240 -153 -240 -163 0 -5 -5 -9 -10 -9 -6 0 -55 -30 -110 -67
l-100 -67 0 -298 0 -298 2500 0 2500 0 0 123 c0 114 -2 128 -34 212 -87 232
-271 605 -337 684 -28 34 -56 61 -62 61 -6 0 -50 26 -97 59 -48 32 -109 66
-136 76 -27 10 -65 25 -84 33 -19 8 -51 16 -70 19 -19 2 -37 7 -40 11 -5 7
-14 10 -48 15 -9 1 -21 5 -27 9 -5 3 -26 9 -45 12 -70 14 -108 37 -116 70 -5
17 -9 34 -10 39 -1 4 -2 8 -4 10 -1 1 -3 11 -5 22 -2 19 -12 69 -20 105 -2 8
-4 15 -5 15 -1 0 -4 11 -6 25 -7 39 -45 164 -53 175 -26 34 -56 139 -65 226
-2 14 -6 31 -10 37 -4 7 -3 12 2 12 5 0 9 42 9 93 0 50 4 128 8 172 4 44 7 85
7 90 0 6 -1 42 -1 80 0 39 -1 81 -1 95 -1 14 -1 32 -1 40 2 34 0 77 -5 100 -3
14 -5 54 -4 90 0 57 -7 94 -41 204 -5 15 -6 32 -3 37 3 5 1 9 -5 9 -5 0 -13
15 -16 33 -4 17 -10 37 -13 42 -8 13 -12 32 -14 77 -2 20 -6 34 -10 32 -5 -3
-8 4 -8 15 0 11 -7 27 -16 35 -8 9 -12 21 -8 27 5 8 3 9 -6 4 -10 -6 -12 -2
-8 18 3 15 1 25 -6 24 -5 -1 -10 3 -11 8 0 6 -6 20 -13 32 -7 12 -12 35 -11
50 1 15 -4 42 -11 58 -7 17 -14 39 -16 50 -5 30 -15 87 -19 110 -5 32 -38 109
-49 117 -6 4 -7 8 -2 8 4 0 1 11 -7 23 -9 13 -27 52 -41 86 -15 33 -44 90 -66
125 -21 35 -40 72 -42 82 -2 10 -13 29 -25 42 -13 14 -23 29 -23 35 0 6 -11
25 -25 43 -14 18 -25 35 -25 39 0 3 -22 35 -50 71 -27 36 -50 69 -50 75 0 5
-3 8 -8 6 -4 -1 -8 2 -9 7 -1 5 -12 16 -25 25 -29 19 -38 26 -100 82 -27 23
-48 47 -48 53 0 6 -15 20 -32 31 -54 32 -92 53 -116 64 -14 7 -20 16 -16 23 4
7 3 8 -4 4 -15 -9 -55 18 -44 29 4 5 2 5 -5 2 -6 -4 -17 -2 -25 5 -7 7 -22 15
-33 16 -11 2 -31 10 -45 17 -14 7 -52 18 -85 24 -33 7 -82 16 -108 22 -58 11
-151 12 -161 2z"/>
</g>
</svg>
